<?xml version="1.0" encoding="UTF-8"?>
<svg width="700pt" height="700pt" version="1.1" viewBox="0 0 700 700" xmlns="http://www.w3.org/2000/svg" xmlns:xlink="http://www.w3.org/1999/xlink">
 <defs>
  <symbol id="n" overflow="visible">
   <path d="m29.312-1.75c-1.5117 0.78125-3.0898 1.3711-4.7344 1.7656-1.6367 0.40625-3.3398 0.60938-5.1094 0.60938-5.3125 0-9.5273-1.4844-12.641-4.4531-3.1055-2.9688-4.6562-7-4.6562-12.094s1.5508-9.125 4.6562-12.094c3.1133-2.9688 7.3281-4.4531 12.641-4.4531 1.7695 0 3.4727 0.19922 5.1094 0.59375 1.6445 0.39844 3.2227 0.99219 4.7344 1.7812v6.5938c-1.5312-1.0391-3.0391-1.8008-4.5156-2.2812-1.4805-0.48828-3.0391-0.73438-4.6719-0.73438-2.9375 0-5.2461 0.94531-6.9219 2.8281-1.6797 1.875-2.5156 4.4648-2.5156 7.7656 0 3.293 0.83594 5.8828 2.5156 7.7656 1.6758 1.875 3.9844 2.8125 6.9219 2.8125 1.6328 0 3.1914-0.23828 4.6719-0.71875 1.4766-0.48828 2.9844-1.2539 4.5156-2.2969z"/>
  </symbol>
  <symbol id="b" overflow="visible">
   <path d="m21.453-17.406c-0.67969-0.3125-1.3516-0.53906-2.0156-0.6875-0.65625-0.15625-1.3203-0.23438-1.9844-0.23438-1.9688 0-3.4844 0.63281-4.5469 1.8906-1.0547 1.2617-1.5781 3.0703-1.5781 5.4219v11.016h-7.6562v-23.922h7.6562v3.9219c0.97656-1.5625 2.1016-2.7031 3.375-3.4219 1.2812-0.71875 2.8125-1.0781 4.5938-1.0781 0.25 0 0.52344 0.011719 0.82812 0.03125 0.30078 0.023438 0.73438 0.070312 1.2969 0.14062z"/>
  </symbol>
  <symbol id="c" overflow="visible">
   <path d="m27.562-12.031v2.1875h-17.891c0.1875 1.793 0.83203 3.1367 1.9375 4.0312 1.1133 0.89844 2.6719 1.3438 4.6719 1.3438 1.6016 0 3.25-0.23438 4.9375-0.70312 1.6875-0.47656 3.4219-1.2031 5.2031-2.1719v5.8906c-1.8047 0.6875-3.6094 1.2031-5.4219 1.5469-1.8125 0.35156-3.6211 0.53125-5.4219 0.53125-4.3359 0-7.7031-1.0977-10.109-3.2969-2.3984-2.207-3.5938-5.2969-3.5938-9.2656 0-3.9062 1.1758-6.9727 3.5312-9.2031 2.3633-2.2383 5.6094-3.3594 9.7344-3.3594 3.7578 0 6.7695 1.1367 9.0312 3.4062 2.2578 2.2617 3.3906 5.2812 3.3906 9.0625zm-7.8594-2.5312c0-1.457-0.42969-2.6289-1.2812-3.5156-0.84375-0.89453-1.9492-1.3438-3.3125-1.3438-1.4922 0-2.6992 0.41797-3.625 1.25-0.91797 0.83594-1.4922 2.0391-1.7188 3.6094z"/>
  </symbol>
  <symbol id="a" overflow="visible">
   <path d="m14.391-10.766c-1.5938 0-2.793 0.27344-3.5938 0.8125-0.80469 0.54297-1.2031 1.3398-1.2031 2.3906 0 0.96875 0.32031 1.7305 0.96875 2.2812 0.64453 0.54297 1.5469 0.8125 2.7031 0.8125 1.4375 0 2.6445-0.51562 3.625-1.5469 0.98828-1.0312 1.4844-2.3203 1.4844-3.875v-0.875zm11.688-2.8906v13.656h-7.7031v-3.5469c-1.0312 1.4492-2.1875 2.5078-3.4688 3.1719s-2.8398 1-4.6719 1c-2.4805 0-4.4961-0.72266-6.0469-2.1719-1.543-1.4453-2.3125-3.3203-2.3125-5.625 0-2.8125 0.96094-4.8672 2.8906-6.1719 1.9375-1.3125 4.9688-1.9688 9.0938-1.9688h4.5156v-0.60938c0-1.207-0.48047-2.0938-1.4375-2.6562-0.94922-0.5625-2.4375-0.84375-4.4688-0.84375-1.6367 0-3.1562 0.16797-4.5625 0.5-1.4062 0.32422-2.7188 0.8125-3.9375 1.4688v-5.8281c1.6445-0.40625 3.2891-0.70703 4.9375-0.90625 1.6562-0.20703 3.3047-0.3125 4.9531-0.3125 4.3203 0 7.4375 0.85547 9.3438 2.5625 1.9141 1.6992 2.875 4.4609 2.875 8.2812z"/>
  </symbol>
  <symbol id="h" overflow="visible">
   <path d="m12.031-30.719v6.7969h7.875v5.4688h-7.875v10.141c0 1.1172 0.21875 1.8711 0.65625 2.2656 0.4375 0.38672 1.3125 0.57812 2.625 0.57812h3.9375v5.4688h-6.5625c-3.0234 0-5.1641-0.62891-6.4219-1.8906-1.2617-1.2578-1.8906-3.3984-1.8906-6.4219v-10.141h-3.7969v-5.4688h3.7969v-6.7969z"/>
  </symbol>
  <symbol id="g" overflow="visible">
   <path d="m19.953-20.422v-12.812h7.6875v33.234h-7.6875v-3.4531c-1.0547 1.4062-2.2148 2.4375-3.4844 3.0938-1.2734 0.65625-2.7422 0.98438-4.4062 0.98438-2.9492 0-5.3711-1.1719-7.2656-3.5156-1.8867-2.3438-2.8281-5.3594-2.8281-9.0469s0.94141-6.7031 2.8281-9.0469c1.8945-2.3438 4.3164-3.5156 7.2656-3.5156 1.6562 0 3.1172 0.33594 4.3906 1 1.2812 0.65625 2.4453 1.6836 3.5 3.0781zm-5.0469 15.484c1.6445 0 2.8945-0.59766 3.75-1.7969 0.86328-1.1953 1.2969-2.9297 1.2969-5.2031 0-2.2812-0.43359-4.0195-1.2969-5.2188-0.85547-1.1953-2.1055-1.7969-3.75-1.7969-1.625 0-2.8711 0.60156-3.7344 1.7969-0.85547 1.1992-1.2812 2.9375-1.2812 5.2188 0 2.2734 0.42578 4.0078 1.2812 5.2031 0.86328 1.1992 2.1094 1.7969 3.7344 1.7969z"/>
  </symbol>
  <symbol id="f" overflow="visible">
   <path d="m16.406-4.9375c1.6328 0 2.8828-0.59766 3.75-1.7969 0.86328-1.1953 1.2969-2.9297 1.2969-5.2031 0-2.2812-0.43359-4.0195-1.2969-5.2188-0.86719-1.1953-2.1172-1.7969-3.75-1.7969-1.6367 0-2.8906 0.60547-3.7656 1.8125-0.875 1.1992-1.3125 2.9336-1.3125 5.2031 0 2.2617 0.4375 3.9961 1.3125 5.2031 0.875 1.1992 2.1289 1.7969 3.7656 1.7969zm-5.0781-15.484c1.0508-1.3945 2.2188-2.4219 3.5-3.0781 1.2812-0.66406 2.7539-1 4.4219-1 2.9453 0 5.3672 1.1719 7.2656 3.5156 1.8945 2.3438 2.8438 5.3594 2.8438 9.0469s-0.94922 6.7031-2.8438 9.0469c-1.8984 2.3438-4.3203 3.5156-7.2656 3.5156-1.668 0-3.1406-0.33594-4.4219-1s-2.4492-1.6914-3.5-3.0781v3.4531h-7.6562v-33.234h7.6562z"/>
  </symbol>
  <symbol id="e" overflow="visible">
   <path d="m0.53125-23.922h7.6562l6.4219 16.234 5.4688-16.234h7.6562l-10.062 26.188c-1.0117 2.6641-2.1953 4.5234-3.5469 5.5781-1.3438 1.0625-3.1211 1.5938-5.3281 1.5938h-4.4219v-5.0156h2.3906c1.3008 0 2.2422-0.21094 2.8281-0.625 0.59375-0.40625 1.0547-1.1484 1.3906-2.2188l0.20312-0.65625z"/>
  </symbol>
  <symbol id="d" overflow="visible">
   <path d="m19.953-4.0625c-1.0547 1.3984-2.2148 2.4219-3.4844 3.0781-1.2734 0.65625-2.7422 0.98438-4.4062 0.98438-2.918 0-5.3281-1.1484-7.2344-3.4531-1.9062-2.3008-2.8594-5.2266-2.8594-8.7812 0-3.582 0.95312-6.5156 2.8594-8.7969s4.3164-3.4219 7.2344-3.4219c1.6641 0 3.1328 0.32812 4.4062 0.98438 1.2695 0.64844 2.4297 1.6797 3.4844 3.0938v-3.5469h7.6875v21.516c0 3.8438-1.2148 6.7734-3.6406 8.7969-2.4297 2.0312-5.9492 3.0469-10.562 3.0469-1.5 0-2.9492-0.11719-4.3438-0.34375-1.3984-0.21875-2.7969-0.57031-4.2031-1.0469v-5.9531c1.3438 0.76953 2.6562 1.3438 3.9375 1.7188s2.5664 0.5625 3.8594 0.5625c2.5078 0 4.3477-0.54688 5.5156-1.6406 1.1641-1.0938 1.75-2.8047 1.75-5.1406zm-5.0469-14.891c-1.5742 0-2.8047 0.58984-3.6875 1.7656-0.88672 1.168-1.3281 2.8203-1.3281 4.9531 0 2.1875 0.42578 3.8516 1.2812 4.9844 0.85156 1.1367 2.0977 1.7031 3.7344 1.7031 1.5938 0 2.832-0.58203 3.7188-1.75 0.88281-1.1758 1.3281-2.8203 1.3281-4.9375 0-2.1328-0.44531-3.7852-1.3281-4.9531-0.88672-1.1758-2.125-1.7656-3.7188-1.7656z"/>
  </symbol>
  <symbol id="m" overflow="visible">
   <path d="m3.4219-9.3125v-14.609h7.6875v2.3906c0 1.293-0.011719 2.918-0.03125 4.875-0.011719 1.9609-0.015625 3.2656-0.015625 3.9219 0 1.9297 0.046875 3.3125 0.14062 4.1562 0.10156 0.84375 0.28125 1.4609 0.53125 1.8438 0.3125 0.5 0.71875 0.88672 1.2188 1.1562 0.50781 0.27344 1.0938 0.40625 1.75 0.40625 1.5938 0 2.8438-0.60938 3.75-1.8281 0.91406-1.2266 1.375-2.9297 1.375-5.1094v-11.812h7.6406v23.922h-7.6406v-3.4531c-1.1562 1.3867-2.3828 2.4141-3.6719 3.0781-1.2812 0.66406-2.6992 1-4.25 1-2.7734 0-4.8828-0.84766-6.3281-2.5469-1.4375-1.6953-2.1562-4.1602-2.1562-7.3906z"/>
  </symbol>
  <symbol id="l" overflow="visible">
   <path d="m22.359-23.172v5.7969c-1.6367-0.67578-3.2148-1.1875-4.7344-1.5312-1.5234-0.34375-2.9609-0.51562-4.3125-0.51562-1.4609 0-2.543 0.18359-3.25 0.54688-0.69922 0.36719-1.0469 0.92188-1.0469 1.6719 0 0.61719 0.26562 1.0898 0.79688 1.4219 0.53125 0.32422 1.4883 0.5625 2.875 0.71875l1.3438 0.1875c3.9141 0.5 6.5508 1.3242 7.9062 2.4688 1.3516 1.1367 2.0312 2.9219 2.0312 5.3594 0 2.5547-0.94531 4.4688-2.8281 5.75-1.875 1.2812-4.6797 1.9219-8.4062 1.9219-1.5859 0-3.2188-0.125-4.9062-0.375s-3.4219-0.625-5.2031-1.125v-5.8125c1.5195 0.74219 3.082 1.2969 4.6875 1.6719 1.6016 0.36719 3.2344 0.54688 4.8906 0.54688 1.4883 0 2.6094-0.20312 3.3594-0.60938 0.75781-0.41406 1.1406-1.0312 1.1406-1.8438 0-0.6875-0.26172-1.1953-0.78125-1.5312-0.52344-0.33203-1.5586-0.59375-3.1094-0.78125l-1.3438-0.17188c-3.4062-0.42578-5.793-1.2109-7.1562-2.3594-1.3672-1.1562-2.0469-2.9102-2.0469-5.2656 0-2.5312 0.86719-4.4062 2.6094-5.625 1.7383-1.2266 4.3984-1.8438 7.9844-1.8438 1.4062 0 2.8828 0.10938 4.4375 0.32812 1.5508 0.21094 3.2383 0.54297 5.0625 1z"/>
  </symbol>
  <symbol id="k" overflow="visible">
   <path d="m27.734-14.562v14.562h-7.7031v-11.109c0-2.0938-0.046875-3.5312-0.14062-4.3125-0.085937-0.78125-0.24219-1.3594-0.46875-1.7344-0.30469-0.5-0.71094-0.88281-1.2188-1.1562-0.51172-0.28125-1.0938-0.42188-1.75-0.42188-1.5938 0-2.8516 0.61719-3.7656 1.8438-0.90625 1.2305-1.3594 2.9375-1.3594 5.125v11.766h-7.6562v-33.234h7.6562v12.812c1.1445-1.3945 2.3633-2.4219 3.6562-3.0781 1.3008-0.66406 2.7383-1 4.3125-1 2.7578 0 4.8516 0.85156 6.2812 2.5469 1.4375 1.6875 2.1562 4.1523 2.1562 7.3906z"/>
  </symbol>
  <symbol id="j" overflow="visible">
   <path d="m3.6719-23.922h7.6562v23.5c0 3.1953-0.77344 5.6406-2.3125 7.3281-1.543 1.6875-3.7734 2.5312-6.6875 2.5312h-3.7812v-5.0156h1.3281c1.4453 0 2.4414-0.32812 2.9844-0.98438 0.53906-0.65625 0.8125-1.9453 0.8125-3.8594zm0-9.3125h7.6562v6.2344h-7.6562z"/>
  </symbol>
  <symbol id="i" overflow="visible">
   <path d="m15.062-19.031c-1.6992 0-2.9961 0.60938-3.8906 1.8281-0.88672 1.2188-1.3281 2.9766-1.3281 5.2656 0 2.293 0.44141 4.0469 1.3281 5.2656 0.89453 1.2188 2.1914 1.8281 3.8906 1.8281 1.6641 0 2.9375-0.60938 3.8125-1.8281 0.88281-1.2188 1.3281-2.9727 1.3281-5.2656 0-2.2891-0.44531-4.0469-1.3281-5.2656-0.875-1.2188-2.1484-1.8281-3.8125-1.8281zm0-5.4688c4.1133 0 7.3281 1.1094 9.6406 3.3281s3.4688 5.2969 3.4688 9.2344c0 3.9297-1.1562 7.0078-3.4688 9.2344-2.3125 2.2188-5.5273 3.3281-9.6406 3.3281-4.1367 0-7.3711-1.1094-9.7031-3.3281-2.3242-2.2266-3.4844-5.3047-3.4844-9.2344 0-3.9375 1.1602-7.0156 3.4844-9.2344 2.332-2.2188 5.5664-3.3281 9.7031-3.3281z"/>
  </symbol>
 </defs>
 <g>
  <path d="m350 21.855c-51.059-0.003907-100.97 15.133-143.42 43.496-42.457 28.359-75.547 68.676-95.09 115.85-19.539 47.168-24.656 99.074-14.695 149.15 9.957 50.078 34.543 96.078 70.641 132.18 36.102 36.105 82.102 60.695 132.18 70.656 50.078 9.9609 101.98 4.8516 149.15-14.688 47.172-19.535 87.488-52.625 115.86-95.074 28.367-42.453 43.508-92.363 43.508-143.42-0.074219-68.438-27.293-134.05-75.684-182.45-48.391-48.395-114-75.621-182.44-75.699zm0 499.36c-47.711 0.003906-94.348-14.141-134.02-40.645-39.672-26.5-70.59-64.172-88.852-108.25-18.262-44.078-23.039-92.578-13.734-139.37 9.3047-46.793 32.277-89.777 66.012-123.51 33.734-33.738 76.715-56.715 123.51-66.023 46.789-9.3086 95.293-4.5312 139.37 13.723 44.078 18.258 81.754 49.176 108.26 88.844 26.508 39.668 40.656 86.305 40.656 134.02-0.070313 63.949-25.504 125.26-70.723 170.48-45.219 45.223-106.53 70.664-170.48 70.738zm-128.88-414.28c-1.0273-1.418-0.71094-3.4023 0.70703-4.4297 4.6133-3.3398 9.418-6.5469 14.289-9.5312 1.5-0.90234 3.4453-0.42969 4.3594 1.0625 0.91016 1.4922 0.44531 3.4414-1.043 4.3633-4.7305 2.8945-9.4023 6-13.879 9.25v-0.003906c-0.67969 0.49609-1.5312 0.69922-2.3633 0.5625-0.83203-0.13281-1.5781-0.58984-2.0703-1.2734zm-31.246 28.484c-0.61719-0.57422-0.98047-1.3711-1.0117-2.2109-0.03125-0.84375 0.27344-1.6602 0.84766-2.2773 3.8633-4.1484 7.9609-8.2305 12.176-12.117 0.61719-0.57812 1.4414-0.88281 2.2852-0.85156s1.6406 0.39844 2.2109 1.0195c0.57422 0.61719 0.875 1.4414 0.83984 2.2852s-0.40625 1.6367-1.0273 2.207c-4.1016 3.7852-8.0781 7.7461-11.836 11.785v0.003906c-1.1953 1.2773-3.2031 1.3516-4.4844 0.15625zm-46.828 193.51c0.19531 0.82031 0.058594 1.6875-0.38281 2.4062-0.44141 0.71875-1.1523 1.2305-1.9727 1.4258-0.82422 0.19531-1.6875 0.050781-2.4023-0.39453-0.71875-0.44531-1.2266-1.1602-1.418-1.9805-1.3086-5.5391-2.418-11.215-3.2891-16.859v-0.003906c-0.26953-1.7305 0.91797-3.3555 2.6484-3.625 1.7344-0.26953 3.3555 0.91797 3.625 2.6523 0.84766 5.4883 1.9219 11 3.1914 16.379zm13.52 39.367-0.003906 0.003906c0.35547 0.76562 0.39062 1.6367 0.097656 2.4297-0.29297 0.78906-0.89062 1.4297-1.6562 1.7812-0.76562 0.35156-1.6406 0.38281-2.4297 0.089843-0.78906-0.29297-1.4297-0.89062-1.7773-1.6562-2.3828-5.207-4.582-10.547-6.5312-15.879-0.29297-0.79297-0.26172-1.668 0.09375-2.4336 0.35156-0.76562 0.99609-1.3633 1.7891-1.6523 0.79297-0.28906 1.668-0.25391 2.4336 0.10547 0.76562 0.35547 1.3555 1.0039 1.6445 1.7969 1.8906 5.1758 4.0234 10.367 6.3359 15.418zm7.1211-203.25c3.0039-4.8594 6.2422-9.6523 9.6133-14.25l-0.003906 0.003907c0.49609-0.68359 1.2461-1.1406 2.0781-1.2695 0.83203-0.13281 1.6836 0.074219 2.3633 0.57422 0.68359 0.5 1.1367 1.25 1.2617 2.082 0.12891 0.83594-0.085938 1.6875-0.58594 2.3633-3.2734 4.4648-6.4141 9.1172-9.332 13.836-0.92188 1.4922-2.8789 1.9531-4.3672 1.0312-1.4922-0.92188-1.9531-2.8789-1.0312-4.3672zm93.594-79.973c-0.72656-1.5938-0.03125-3.4766 1.5586-4.207 5.2148-2.3984 10.555-4.5938 15.879-6.5547 1.6445-0.58984 3.457 0.25781 4.0547 1.8984 0.60156 1.6406-0.23828 3.457-1.8711 4.0664-5.1602 1.8945-10.344 4.0234-15.406 6.3555h-0.003906c-1.5938 0.73438-3.4766 0.035156-4.2109-1.5625zm-122.97 205.74c-1.6562 0.042969-3.0469-1.2305-3.1484-2.8867l-0.011718-0.40625c-0.089844-2.4805-0.13281-5.0586-0.13281-7.6367 0-3.0742 0.0625-6.1484 0.19531-9.1992 0.11719-1.7305 1.5703-3.0664 3.3047-3.0391 1.75 0.074218 3.1094 1.5547 3.0352 3.3047-0.125 2.9688-0.1875 5.9453-0.1875 8.9336 0 2.4961 0.042968 5.0078 0.13281 7.5234 0.070312 1.7656-1.2656 3.2695-3.0234 3.4062zm162.72-220.09c-0.40625-1.7031 0.64453-3.418 2.3516-3.8242 5.5781-1.3242 11.254-2.4375 16.871-3.2969v-0.003907c0.83203-0.13672 1.6836 0.066407 2.3633 0.5625 0.68359 0.5 1.1328 1.25 1.2539 2.082 0.26953 1.7344-0.91797 3.3594-2.6523 3.6289-5.4453 0.83594-10.957 1.918-16.367 3.207h0.003906c-0.24219 0.058594-0.49219 0.085938-0.74219 0.085938-1.4648-0.003907-2.7422-1.0117-3.082-2.4414zm-139.85 119.68c-2.332 4.9766-4.5039 10.156-6.4609 15.383h0.003907c-0.46094 1.2422-1.6484 2.0664-2.9727 2.0664-0.37891 0-0.75391-0.070313-1.1133-0.19922-1.6367-0.61328-2.4727-2.4414-1.8594-4.082 2.0117-5.3906 4.25-10.73 6.6484-15.863h0.003906c0.74609-1.582 2.6328-2.2656 4.2188-1.5195 1.5859 0.74219 2.2734 2.6289 1.5312 4.2148zm303.2-95.82c0.92578-1.4844 2.8789-1.9492 4.3711-1.0312 4.8438 3 9.6367 6.2305 14.258 9.6055v-0.003906c1.4141 1.0352 1.7227 3.0195 0.6875 4.4336-1.0312 1.418-3.0195 1.7266-4.4336 0.69141-4.4883-3.2812-9.1484-6.4141-13.852-9.3242-1.4922-0.92188-1.9492-2.8789-1.0312-4.3711zm34.176 29.605h0.003906c-0.62109-0.57031-0.98828-1.3672-1.0234-2.2109-0.03125-0.84375 0.27344-1.6641 0.84766-2.2852 0.57812-0.61719 1.375-0.98047 2.2188-1.0078s1.6641 0.28125 2.2773 0.85938c4.1641 3.8672 8.25 7.9609 12.129 12.16h0.003906c1.1602 1.2891 1.0703 3.2734-0.20703 4.4531-1.2734 1.1797-3.2578 1.1172-4.457-0.14062-3.7734-4.082-7.7383-8.0586-11.789-11.828zm62.285 106.45 0.003906 0.003907c-0.40625-1.707 0.64453-3.418 2.3516-3.8242 1.7031-0.40625 3.4141 0.64844 3.8203 2.3516 1.3281 5.5625 2.4453 11.234 3.3242 16.859 0.12891 0.83203-0.078125 1.6836-0.57422 2.3594-0.49609 0.67969-1.2422 1.1328-2.0742 1.2617-0.16406 0.03125-0.32812 0.042969-0.49219 0.042969-1.5625 0-2.8945-1.1406-3.1328-2.6875-0.85156-5.4609-1.9336-10.969-3.2227-16.363zm-34.645-75.27c-1.0352-1.4219-0.71875-3.4102 0.69922-4.4414 1.4219-1.0312 3.4102-0.71484 4.4414 0.70312 3.3477 4.6211 6.5586 9.4219 9.5391 14.281v0.003906c0.91406 1.4922 0.44141 3.4453-1.0508 4.3633-0.49609 0.30859-1.0703 0.47266-1.6523 0.46875-1.1055 0.003906-2.1328-0.57031-2.7109-1.5117-2.8945-4.7188-6.0117-9.3867-9.2656-13.867zm-183.13-90.922c-0.089843-0.80859 0.16016-1.6172 0.68359-2.2383 0.52344-0.625 1.2773-1.0039 2.0898-1.0586 0.054688-0.007812 0.56641-0.023438 0.625-0.023438 5.3828-0.19922 11.078-0.17187 16.613 0.050782l-0.003906-0.003906c1.7266 0.074218 3.0742 1.5117 3.0391 3.2383-0.03125 1.7266-1.4414 3.1055-3.1641 3.1094h-0.13672c-5.3867-0.23047-10.797-0.24609-16.238-0.050782v0.003907c-1.7539-0.007813-3.2422-1.293-3.5078-3.0273zm83.051 12.102c0.61328-1.6406 2.4375-2.4766 4.082-1.8672 5.3594 1.9922 10.699 4.2305 15.867 6.6367 1.3477 0.62891 2.0742 2.1094 1.7539 3.5625-0.32422 1.4531-1.6094 2.4883-3.0977 2.4883-0.46484-0.003906-0.92187-0.10547-1.3438-0.29688-5.0078-2.3398-10.188-4.5039-15.395-6.4375v-0.003906c-1.6445-0.60938-2.4805-2.4375-1.8672-4.082zm-41.047-10.176c0.27734-1.7305 1.9062-2.9062 3.6367-2.6289 5.6367 0.91016 11.305 2.043 16.844 3.3906 1.5625 0.37891 2.5898 1.8633 2.4023 3.457-0.19141 1.5938-1.5391 2.7969-3.1445 2.8008-0.25391 0-0.50781-0.027344-0.75391-0.09375-5.375-1.2969-10.883-2.4062-16.355-3.2891-0.83203-0.13281-1.5742-0.58984-2.0664-1.2734-0.49609-0.67969-0.69531-1.5312-0.5625-2.3633zm-237.7 163.34c-1.3047 5.3555-2.418 10.852-3.3047 16.348-0.24609 1.5352-1.5703 2.668-3.1289 2.668-0.16797 0-0.33984-0.015625-0.50781-0.039063-0.83203-0.13281-1.5742-0.59375-2.0664-1.2734-0.49219-0.68359-0.69531-1.5352-0.5625-2.3633 0.91406-5.6602 2.0586-11.332 3.4062-16.844v-0.003907c0.41406-1.6992 2.1328-2.7461 3.8359-2.3281 1.7031 0.41406 2.7461 2.1328 2.3281 3.8359zm393.18 164.85c-3.0234 4.8945-6.25 9.6953-9.582 14.266-1.043 1.4062-3.0195 1.707-4.4297 0.67578-1.4102-1.0352-1.7227-3.0117-0.69531-4.4258 3.2383-4.4297 6.3672-9.0938 9.3047-13.852l-0.003906-0.003907c0.92187-1.4922 2.8789-1.9531 4.375-1.0312 1.4922 0.92188 1.9531 2.8789 1.0312 4.3711zm18.824-38.574c-1.9805 5.332-4.207 10.672-6.6172 15.871-0.51953 1.1172-1.6445 1.8359-2.8789 1.832-0.46094 0.003907-0.91797-0.097656-1.3359-0.29687-0.76172-0.35156-1.3555-0.99609-1.6445-1.7852-0.28906-0.79297-0.25391-1.6641 0.097656-2.4297 2.3438-5.043 4.5039-10.223 6.4258-15.406h0.003907c0.61328-1.6367 2.4375-2.4648 4.0781-1.8555 1.6367 0.60938 2.4766 2.4297 1.8711 4.0703zm-44.949 68.238h0.003906c0.61719 0.57422 0.98047 1.3672 1.0117 2.2109 0.03125 0.83984-0.26953 1.6602-0.84375 2.2773-3.8711 4.1836-7.9648 8.2656-12.152 12.141l-0.003907 0.003906c-0.61719 0.57422-1.4375 0.875-2.2812 0.84375-0.83984-0.03125-1.6367-0.39844-2.207-1.0156-0.57422-0.62109-0.875-1.4414-0.83984-2.2852 0.035156-0.84375 0.40234-1.6367 1.0234-2.207 4.0703-3.7617 8.043-7.7266 11.809-11.797v0.003906c0.57031-0.62109 1.3633-0.98438 2.2031-1.0195 0.84375-0.03125 1.6641 0.27344 2.2812 0.84375zm58.547-144.12c0 2.9258-0.058593 5.8359-0.17578 8.7461-0.066406 1.7031-1.4609 3.0469-3.1641 3.0508h-0.13281c-1.75-0.074219-3.1094-1.5469-3.043-3.2969 0.11328-2.8281 0.16797-5.6523 0.16797-8.4961 0-2.4961-0.042968-5.0078-0.13281-7.5234h0.003906c-0.089844-1.8203 1.2422-3.4023 3.0508-3.6289 0.79688-0.089843 1.5977 0.14844 2.2148 0.66016 0.61719 0.51172 1 1.25 1.0625 2.0508l0.019531 0.74219c0.089844 2.5391 0.13281 5.1172 0.13281 7.6992zm-391.44 124.16c1.0039 1.4219 0.67578 3.3906-0.73437 4.4102-1.4141 1.0195-3.3828 0.71094-4.418-0.69141-3.3477-4.6367-6.5508-9.457-9.5078-14.309v0.003906c-0.91016-1.5-0.43359-3.4492 1.0625-4.3594 1.4922-0.91016 3.4453-0.44141 4.3594 1.0508 2.8711 4.7188 5.9805 9.3906 9.2383 13.895zm388.73-89.785c-0.89844 5.6523-2.0352 11.324-3.3633 16.852-0.34766 1.4258-1.6211 2.4297-3.0859 2.4297-0.25 0.003907-0.50391-0.027343-0.74609-0.089843-0.82031-0.19922-1.5234-0.71094-1.9648-1.4297-0.4375-0.71484-0.57422-1.5781-0.37891-2.3984 1.2969-5.3711 2.3984-10.879 3.2734-16.355 0.28906-1.7227 1.9062-2.8984 3.6328-2.6367 0.83203 0.12891 1.5742 0.58594 2.0703 1.2656 0.49219 0.68359 0.69531 1.5312 0.5625 2.3633zm-10.691-109.97c0.60547 1.6445-0.23828 3.4688-1.8828 4.0742-0.35156 0.12891-0.72266 0.19531-1.0977 0.19922-1.3281 0-2.5156-0.82812-2.9805-2.0742-1.918-5.2148-4.0625-10.398-6.3711-15.406-0.73047-1.5938-0.035156-3.4766 1.5547-4.2109 1.5938-0.73438 3.4766-0.042969 4.2148 1.5469 2.375 5.168 4.582 10.508 6.5625 15.871zm-76.336 248.28c0.49609 0.67969 0.70312 1.5273 0.57031 2.3594-0.12891 0.83203-0.58594 1.5742-1.2695 2.0703-4.582 3.3398-9.3867 6.5547-14.266 9.5625-0.71484 0.44141-1.5781 0.58203-2.3984 0.38672-0.82031-0.19531-1.5273-0.71094-1.9688-1.4258-0.91797-1.4922-0.45312-3.4453 1.0352-4.3672 4.7461-2.918 9.4102-6.043 13.859-9.2812h0.003906c0.67969-0.5 1.5273-0.70703 2.3594-0.57422 0.83594 0.12891 1.582 0.58594 2.0742 1.2695zm-240.02 12.406c-0.44531 0.71484-1.1523 1.2227-1.9727 1.4141-0.82031 0.1875-1.6797 0.046876-2.3945-0.39844-4.8555-3.0078-9.6445-6.25-14.242-9.6289-0.67578-0.5-1.1289-1.2461-1.2539-2.0781-0.12891-0.83203 0.082031-1.6797 0.58203-2.3555 1.0352-1.4102 3.0234-1.7148 4.4336-0.67578 4.4609 3.2734 9.1133 6.4219 13.828 9.3477 0.71484 0.44531 1.2227 1.1562 1.4141 1.9766 0.19141 0.82031 0.050781 1.6836-0.39453 2.3984zm203.89 9.5391c0.73828 1.5898 0.042968 3.4766-1.5469 4.2148-5.1758 2.3906-10.508 4.5938-15.852 6.5781h-0.003906c-0.35156 0.12891-0.72656 0.19922-1.1016 0.19922-1.5352 0-2.8516-1.1016-3.125-2.6133-0.26953-1.5117 0.58203-3 2.0195-3.5352 5.1953-1.9258 10.375-4.0742 15.398-6.3984 1.5938-0.73438 3.4766-0.039063 4.2109 1.5547zm-165.68 8.5703c-0.46484 1.2383-1.6484 2.0586-2.9688 2.0586-0.38281-0.003907-0.76172-0.070313-1.1172-0.19922-5.3633-2.0156-10.699-4.2656-15.848-6.6719-1.5859-0.74609-2.2734-2.6328-1.5312-4.2227 0.76172-1.5703 2.6328-2.25 4.2227-1.5273 4.9961 2.3398 10.176 4.5195 15.387 6.4727v-0.003906c1.6406 0.62109 2.4727 2.4492 1.8555 4.0938zm-72.34-47.809c1.2852 1.1953 1.3555 3.207 0.16016 4.4883-1.1992 1.2852-3.207 1.3555-4.4883 0.15625-4.168-3.8945-8.2422-7.9922-12.102-12.191-1.1875-1.2891-1.1055-3.2969 0.18359-4.4844 1.293-1.1836 3.3008-1.1016 4.4844 0.1875 3.7539 4.082 7.7109 8.0664 11.762 11.844zm113.37 58.066h0.003906c-0.24609 1.5352-1.5742 2.668-3.1289 2.668-0.17188 0-0.34375-0.015625-0.51172-0.039062-5.6719-0.91797-11.336-2.0742-16.84-3.4219h-0.003906c-1.6992-0.42188-2.7422-2.1406-2.3242-3.8438 0.44531-1.6836 2.1406-2.7109 3.8398-2.3242 5.3438 1.3125 10.84 2.4297 16.344 3.3242 0.83203 0.13281 1.5742 0.58984 2.0664 1.2734 0.49219 0.68359 0.69141 1.5312 0.55859 2.3633zm43.141 2.0156h0.003907c0.046874 1.7539-1.3359 3.2148-3.0859 3.2656l-0.82812 0.023437c-2.6484 0.097656-5.2305 0.14062-7.8086 0.14062-3.1562 0-6.3008-0.066406-9.4336-0.19922-1.75-0.074219-3.1055-1.5547-3.0312-3.3047 0.09375-1.7422 1.5586-3.0898 3.3047-3.043 5.5273 0.23828 11.09 0.28125 16.688 0.066406l0.93359-0.03125c1.7422-0.023437 3.1875 1.3438 3.2617 3.082zm41.785-6.4062h0.003906c0.19531 0.82031 0.058594 1.6797-0.38281 2.3984-0.4375 0.71484-1.1445 1.2266-1.9648 1.4219-5.543 1.332-11.211 2.4531-16.855 3.3398-0.16406 0.027343-0.33203 0.042969-0.49609 0.039062-1.6562 0-3.0352-1.2734-3.1641-2.9258-0.125-1.6523 1.0391-3.125 2.6758-3.3789 5.4766-0.86719 10.98-1.957 16.363-3.2383l-0.003906-0.003906c0.82031-0.19922 1.6836-0.0625 2.4023 0.37891 0.71875 0.44141 1.2344 1.1484 1.4258 1.9688zm122.82-225.16-121.12-12.348 42.238-50.117h-0.003907c4.1836-4.9805 3.8516-12.336-0.75781-16.926-4.6094-4.5898-11.965-4.8828-16.93-0.67969l-51.102 42.926-12.547-123.07c-0.5625-5.3164-3.7305-10.004-8.4492-12.508-4.7188-2.5078-10.375-2.5078-15.094 0-4.7188 2.5039-7.8867 7.1914-8.4492 12.508l-12.547 123.07-51.102-42.926v0.003906c-4.9609-4.207-12.32-3.9141-16.93 0.67578-4.6094 4.5898-4.9414 11.945-0.75781 16.926l42.238 50.117-121.12 12.348c-5.3164 0.5625-10.004 3.7305-12.508 8.4492-2.5078 4.7188-2.5078 10.375 0 15.094 2.5039 4.7188 7.1914 7.8867 12.508 8.4492l122.86 12.523-43.98 52.309c-4.1641 4.9922-3.8359 12.332 0.76172 16.93 4.5938 4.5938 11.938 4.9258 16.926 0.76172l51.328-43.164 12.32 120.86c0.5625 5.3164 3.7305 10 8.4492 12.508 4.7188 2.5078 10.375 2.5078 15.094 0 4.7188-2.5078 7.8867-7.1914 8.4492-12.508l12.32-120.86 51.328 43.164c2.2539 1.957 5.1406 3.0391 8.125 3.0469 4.8555-0.10547 9.2305-2.9688 11.266-7.3789 2.0312-4.4141 1.375-9.5977-1.7031-13.359l-43.98-52.309 122.86-12.523c5.3164-0.5625 10.004-3.7305 12.508-8.4492 2.5078-4.7188 2.5078-10.375 0-15.094-2.5039-4.7188-7.1914-7.8867-12.508-8.4492zm-176.21 58.141c-11.18 0.003907-21.898-4.4375-29.805-12.34-7.9023-7.9023-12.344-18.625-12.344-29.801 0-11.18 4.4375-21.898 12.34-29.805 7.9062-7.9023 18.625-12.344 29.805-12.344 11.176 0 21.895 4.4375 29.801 12.344 7.9023 7.9023 12.344 18.621 12.344 29.801-0.011719 11.172-4.4531 21.887-12.355 29.789-7.8984 7.8984-18.613 12.344-29.785 12.355zm87.602-128.73-41.676 49.516v0.003906c-2.3086-2.8516-4.8789-5.4844-7.6719-7.8633zm-125.96 41.754c-2.7891 2.3828-5.3516 5.0234-7.6523 7.8789l-41.84-49.461zm-49.242 133.87 42.684-50.773h0.003907c2.4453 2.8672 5.1562 5.5 8.0977 7.8516zm124.54-43.012h0.003906c2.9336-2.3594 5.6406-4.9961 8.0781-7.8711l42.84 50.629zm-36.934-71.246c-6.6875 0-13.102 2.6562-17.832 7.3867-4.7305 4.7266-7.3867 11.141-7.3906 17.828 0 6.6914 2.6562 13.105 7.3867 17.836 4.7266 4.7266 11.141 7.3867 17.832 7.3867 6.6875 0 13.102-2.6562 17.832-7.3867 4.7266-4.7305 7.3867-11.145 7.3867-17.832-0.007813-6.6836-2.668-13.094-7.3945-17.82-4.7266-4.7305-11.137-7.3867-17.82-7.3984zm0 33.508c-3.3516 0.003907-6.3789-2.0156-7.6602-5.1133-1.2852-3.0977-0.57812-6.6641 1.793-9.0352 2.3711-2.3711 5.9375-3.082 9.0352-1.8008 3.0977 1.2852 5.1172 4.3086 5.1172 7.6602-0.003906 4.5742-3.7109 8.2852-8.2852 8.2891z"/>
  <use x="70" y="691.25" xlink:href="#n"/>
  <use x="102.109375" y="691.25" xlink:href="#b"/>
  <use x="123.683594" y="691.25" xlink:href="#c"/>
  <use x="153.355469" y="691.25" xlink:href="#a"/>
  <use x="182.878906" y="691.25" xlink:href="#h"/>
  <use x="203.792969" y="691.25" xlink:href="#c"/>
  <use x="233.464844" y="691.25" xlink:href="#g"/>
  <use x="280.011719" y="691.25" xlink:href="#f"/>
  <use x="311.328125" y="691.25" xlink:href="#e"/>
  <use x="355.078125" y="691.25" xlink:href="#a"/>
  <use x="384.601562" y="691.25" xlink:href="#d"/>
  <use x="415.917969" y="691.25" xlink:href="#m"/>
  <use x="447.066406" y="691.25" xlink:href="#l"/>
  <use x="488.339844" y="691.25" xlink:href="#b"/>
  <use x="509.914062" y="691.25" xlink:href="#a"/>
  <use x="539.4375" y="691.25" xlink:href="#k"/>
  <use x="570.582031" y="691.25" xlink:href="#a"/>
  <use x="600.105469" y="691.25" xlink:href="#b"/>
  <use x="621.679688" y="691.25" xlink:href="#j"/>
  <use x="636.679688" y="691.25" xlink:href="#i"/>
 </g>
</svg>
